<svg xmlns="http://www.w3.org/2000/svg" xmlns:xlink="http://www.w3.org/1999/xlink" width="60" height="60" viewBox="0 0 60 60">
  <defs>
    <linearGradient id="linear-gradient" x1="0.5" x2="0.5" y2="1" gradientUnits="objectBoundingBox">
      <stop offset="0" stop-color="#08daff"/>
      <stop offset="1" stop-color="#eb36ff"/>
    </linearGradient>
  </defs>
  <g id="slide-4" transform="translate(0 0)">
    <path id="Path_44" data-name="Path 44" d="M192.393,11.077a1.172,1.172,0,1,0,1.658,1.658,4.973,4.973,0,0,0,0-7.024,2.626,2.626,0,0,1,0-3.71A1.172,1.172,0,1,0,192.393.343a4.972,4.972,0,0,0,0,7.024A2.626,2.626,0,0,1,192.393,11.077Zm0,0" transform="translate(-168.565)" fill="url(#linear-gradient)"/>
    <path id="Path_45" data-name="Path 45" d="M253.572,11.079a1.172,1.172,0,1,0,1.658,1.658,4.973,4.973,0,0,0,0-7.024,2.623,2.623,0,0,1,0-3.71A1.172,1.172,0,0,0,253.572.345a4.967,4.967,0,0,0,0,7.024,2.626,2.626,0,0,1,0,3.71Zm0,0" transform="translate(-222.572 -0.001)" fill="url(#linear-gradient)"/>
    <path id="Path_46" data-name="Path 46" d="M314.768,11.079a1.172,1.172,0,1,0,1.657,1.658,4.972,4.972,0,0,0,0-7.024,2.624,2.624,0,0,1,0-3.71A1.172,1.172,0,0,0,314.768.345a4.967,4.967,0,0,0,0,7.024,2.626,2.626,0,0,1,0,3.71Zm0,0" transform="translate(-276.596 -0.001)" fill="url(#linear-gradient)"/>
    <path id="Path_47" data-name="Path 47" d="M48.024,159.227a18.593,18.593,0,0,0,2.327-9.028V134.9a1.172,1.172,0,0,0-1.172-1.172H14.105a1.172,1.172,0,0,0-1.172,1.172v4.024H9.549a9.548,9.548,0,0,0-4.154,18.146l6.5,3.14c-5.576,1.9-8.608,4.526-8.608,7.528,0,3.029,3.029,5.65,8.761,7.579a63.864,63.864,0,0,0,19.6,2.741,63.864,63.864,0,0,0,19.6-2.741c5.731-1.929,8.761-4.549,8.761-7.579,0-3.555-4.342-6.622-11.976-8.509ZM15.277,136.07h32.73V150.2a16.366,16.366,0,0,1-29.417,9.873,16.219,16.219,0,0,1-3.313-9.873Zm-12.933,12.4a7.213,7.213,0,0,1,7.2-7.2h3.385V150.2a18.545,18.545,0,0,0,2.316,9.028l-8.836-4.27A7.244,7.244,0,0,1,2.344,148.471Zm48.148,24.623a61.511,61.511,0,0,1-18.85,2.618,61.512,61.512,0,0,1-18.85-2.618c-4.486-1.51-7.164-3.512-7.164-5.358,0-2.17,3.587-4.468,9.379-6.023l3.272,1.581.011,0a18.855,18.855,0,0,0,4.888,3.589,18.707,18.707,0,0,0,23.5-5.571,28.6,28.6,0,0,1,8.118,2.975c1.3.787,2.859,2.024,2.859,3.445,0,1.845-2.678,3.848-7.164,5.358Zm0,0" transform="translate(0 -118.056)" fill="url(#linear-gradient)"/>
    <path id="Path_48" data-name="Path 48" d="M261.187,366.922h.08a1.172,1.172,0,0,0-.008-2.343h-.072a1.172,1.172,0,0,0,0,2.344Zm0,0" transform="translate(-229.545 -321.854)" fill="url(#linear-gradient)"/>
    <path id="Path_49" data-name="Path 49" d="M297.706,277.586a1.169,1.169,0,0,0,.427-.081,12.927,12.927,0,0,0,8.217-12.04,1.172,1.172,0,1,0-2.344,0,10.521,10.521,0,0,1-6.727,9.857,1.172,1.172,0,0,0,.427,2.264Zm0,0" transform="translate(-261.783 -233.321)" fill="url(#linear-gradient)"/>
  </g>
</svg>
