<svg xmlns="http://www.w3.org/2000/svg" width="30.74" height="29.972" viewBox="0 0 30.74 29.972"><path d="M10.282,32.134c0,.124-.143.223-.322.223-.2.019-.347-.081-.347-.223,0-.124.143-.223.322-.223C10.121,31.892,10.282,31.991,10.282,32.134Zm-1.927-.279c-.043.124.081.266.266.3a.291.291,0,0,0,.384-.124c.037-.124-.081-.266-.266-.322a.318.318,0,0,0-.384.143Zm2.739-.105c-.18.043-.3.161-.285.3.019.124.18.2.366.161s.3-.161.285-.285S11.273,31.731,11.094,31.749ZM15.172,8A14.861,14.861,0,0,0,0,23.122,15.538,15.538,0,0,0,10.5,37.947c.793.143,1.072-.347,1.072-.75,0-.384-.019-2.5-.019-3.805,0,0-4.338.93-5.249-1.847,0,0-.707-1.8-1.723-2.268,0,0-1.419-.973.1-.954a3.271,3.271,0,0,1,2.392,1.6,3.276,3.276,0,0,0,4.518,1.3,3.445,3.445,0,0,1,.992-2.089c-3.464-.384-6.96-.886-6.96-6.848a4.7,4.7,0,0,1,1.463-3.65,5.856,5.856,0,0,1,.161-4.208c1.3-.4,4.276,1.673,4.276,1.673a14.641,14.641,0,0,1,7.784,0s2.981-2.082,4.276-1.673a5.853,5.853,0,0,1,.161,4.208,4.818,4.818,0,0,1,1.6,3.65c0,5.981-3.65,6.458-7.115,6.848A3.665,3.665,0,0,1,19.287,32c0,2.089-.019,4.673-.019,5.181,0,.4.285.892,1.072.75a15.4,15.4,0,0,0,10.4-14.812C30.74,14.526,23.768,8,15.172,8ZM6.024,29.376c-.081.062-.062.2.043.322.1.1.242.143.322.062.081-.062.062-.2-.043-.322C6.247,29.338,6.1,29.3,6.024,29.376Zm-.669-.5c-.043.081.019.18.143.242a.184.184,0,0,0,.266-.043c.043-.081-.019-.18-.143-.242C5.5,28.793,5.4,28.812,5.355,28.874ZM7.363,31.08c-.1.081-.062.266.081.384.143.143.322.161.4.062.081-.081.043-.266-.081-.384C7.629,31,7.443,30.981,7.363,31.08Zm-.707-.911c-.1.062-.1.223,0,.366s.266.2.347.143a.283.283,0,0,0,0-.384c-.087-.143-.248-.2-.347-.124Z" transform="translate(0 -8)" fill="#575a85"/></svg>