<svg xmlns="http://www.w3.org/2000/svg" xmlns:xlink="http://www.w3.org/1999/xlink" width="60" height="50.646" viewBox="0 0 60 50.646">
  <defs>
    <linearGradient id="linear-gradient" x1="0.266" x2="0.817" y2="0.859" gradientUnits="objectBoundingBox">
      <stop offset="0" stop-color="#08daff"/>
      <stop offset="1" stop-color="#eb36ff"/>
    </linearGradient>
  </defs>
  <g id="slide-5" transform="translate(-0.002 -0.488)">
    <path id="Path_50" data-name="Path 50" d="M128.444,139.76a1.017,1.017,0,0,0-1.7,0l-6.494,9.9a1.074,1.074,0,0,0-.044,1.073,1.047,1.047,0,0,0,.895.566h5.2a22.753,22.753,0,0,1-7.618,13.661,21.407,21.407,0,0,1-13.621,5.321,20.25,20.25,0,0,1-9.272-2.4,23.092,23.092,0,0,1-7.912-6.79,1.016,1.016,0,0,0-1.641,1.2,25.126,25.126,0,0,0,8.613,7.388,22.267,22.267,0,0,0,10.212,2.622,23.447,23.447,0,0,0,14.945-5.8,24.683,24.683,0,0,0,8.351-15.205h5.731a1.056,1.056,0,0,0,.85-1.622Zm-5.461,9.505,4.61-7.03,4.611,7.03Zm0,0" transform="translate(-75.101 -121.166)" fill="url(#linear-gradient)"/>
    <path id="Path_51" data-name="Path 51" d="M14.9,22.054A1.047,1.047,0,0,0,14,21.489H8.8A22.759,22.759,0,0,1,16.423,7.827a21.407,21.407,0,0,1,13.621-5.32,20.249,20.249,0,0,1,9.272,2.4,23.1,23.1,0,0,1,7.912,6.79,1.016,1.016,0,1,0,1.641-1.2,25.122,25.122,0,0,0-8.612-7.387A22.267,22.267,0,0,0,30.043.488,23.449,23.449,0,0,0,15.1,6.283,24.688,24.688,0,0,0,6.747,21.489H1.017a1.056,1.056,0,0,0-.851,1.622L6.66,33.019a1.016,1.016,0,0,0,1.7.006l6.493-9.916a1.043,1.043,0,0,0,.045-1.056Zm-7.389,8.5L2.9,23.523h9.221Zm0,0" fill="url(#linear-gradient)"/>
    <path id="Path_52" data-name="Path 52" d="M127.355,104.861a13.81,13.81,0,1,0,13.81-13.81A13.81,13.81,0,0,0,127.355,104.861Zm25.586,0a11.776,11.776,0,1,1-11.776-11.776A11.776,11.776,0,0,1,152.941,104.861Zm0,0" transform="translate(-111.163 -79.05)" fill="url(#linear-gradient)"/>
    <path id="Path_53" data-name="Path 53" d="M221.988,142.349v7.468a1.021,1.021,0,0,0,1.068.967h5.69a1.017,1.017,0,0,0,0-2.034h-4.725v-6.4a1.017,1.017,0,0,0-2.034,0Zm0,0" transform="translate(-193.766 -122.939)" fill="url(#linear-gradient)"/>
  </g>
</svg>
