<svg xmlns="http://www.w3.org/2000/svg" width="31.732" height="25.772" viewBox="0 0 31.732 25.772"><path d="M28.47,54.5c.02.282.02.564.02.846,0,8.6-6.544,18.5-18.5,18.5A18.378,18.378,0,0,1,0,70.935a13.454,13.454,0,0,0,1.57.081,13.024,13.024,0,0,0,8.074-2.779,6.515,6.515,0,0,1-6.081-4.51,8.2,8.2,0,0,0,1.228.1A6.878,6.878,0,0,0,6.5,63.606a6.5,6.5,0,0,1-5.215-6.383v-.081a6.55,6.55,0,0,0,2.94.825,6.513,6.513,0,0,1-2.013-8.7,18.486,18.486,0,0,0,13.409,6.805,7.341,7.341,0,0,1-.161-1.49,6.51,6.51,0,0,1,11.255-4.45,12.8,12.8,0,0,0,4.128-1.57,6.486,6.486,0,0,1-2.859,3.584,13.037,13.037,0,0,0,3.745-1.007A13.98,13.98,0,0,1,28.47,54.5Z" transform="translate(0 -48.082)" fill="#575a85"/></svg>